Coordinates
version=1
nRows=13
nColumns=63
inDegrees=yes

Units are S.I. units (second, meters, Newtons, ...)
If the header above contains a line with 'inDegrees', this indicates whether rotational values are in degrees (yes) or radians (no).

endheader
time	pelvis_tilt	pelvis_list	pelvis_rotation	pelvis_tx	pelvis_ty	pelvis_tz	hip_flexion_r	hip_adduction_r	hip_rotation_r	knee_angle_r	knee_angle_r_beta	ankle_angle_r	subtalar_angle_r	mtp_angle_r	hip_flexion_l	hip_adduction_l	hip_rotation_l	knee_angle_l	knee_angle_l_beta	ankle_angle_l	subtalar_angle_l	mtp_angle_l	L5_S1_Flex_Ext	L5_S1_Lat_Bending	L5_S1_axial_rotation	L4_L5_Flex_Ext	L4_L5_Lat_Bending	L4_L5_axial_rotation	L3_L4_Flex_Ext	L3_L4_Lat_Bending	L3_L4_axial_rotation	L2_L3_Flex_Ext	L2_L3_Lat_Bending	L2_L3_axial_rotation	L1_L2_Flex_Ext	L1_L2_Lat_Bending	L1_L2_axial_rotation	L1_T12_Flex_Ext	L1_T12_Lat_Bending	L1_T12_axial_rotation	Abs_r3	Abs_r2	Abs_r1	Abs_t1	Abs_t2	neck_flexion	neck_bending	neck_rotation	arm_flex_r	arm_add_r	arm_rot_r	elbow_flex_r	pro_sup_r	wrist_flex_r	wrist_dev_r	arm_flex_l	arm_add_l	arm_rot_l	elbow_flex_l	pro_sup_l	wrist_flex_l	wrist_dev_l
1.704545	-2.299600	0.096365	104.202008	0.075269	0.988868	0.516859	-2.919593	-1.603211	-10.457952	7.890979	0.137724	29.198444	1.936639	0.000000	-3.275315	2.227799	20.785887	2.648695	0.046228	26.264857	-11.206023	0.000000	-0.121444	-0.240663	-0.860754	-0.225534	-0.320082	-0.914551	-0.199520	-0.585148	-0.914551	-0.138798	-0.585148	-0.753160	-0.112773	-0.490760	-0.699363	-0.069393	-0.372787	-0.645565	-0.867462	-2.722429	-4.787255	0.000000	0.000000	8.414478	6.296156	11.621424	9.606205	-13.044712	46.243211	42.201278	83.653367	3.575077	-4.548450	0.395017	-13.642806	39.207196	49.340861	87.032148	3.056529	-14.012843
1.727273	-2.375323	-0.115910	104.091917	0.075736	0.988949	0.517627	-2.600610	-1.750063	-10.264618	8.045108	0.140414	28.940423	1.673429	0.000000	-2.967927	2.352213	21.270124	2.705972	0.047228	25.826951	-11.818294	0.000000	-0.112700	-0.263998	-0.817582	-0.209295	-0.351118	-0.868681	-0.185155	-0.641885	-0.868681	-0.128805	-0.641885	-0.715384	-0.104653	-0.538345	-0.664285	-0.064397	-0.408933	-0.613186	-0.805006	-2.986400	-4.547144	0.000000	0.000000	8.486360	6.236804	11.031266	9.334115	-13.673783	44.330757	42.761697	82.649213	1.504864	-4.786861	0.570539	-14.289964	38.818827	49.600560	87.219834	1.484475	-13.994498
1.750000	-2.457432	-0.335645	103.881653	0.076353	0.989061	0.518436	-2.230739	-1.927648	-10.134353	8.240533	0.143824	28.748342	1.663227	0.000000	-2.666089	2.492113	21.683637	2.749666	0.047991	25.361211	-12.449287	0.000000	-0.105294	-0.287741	-0.759748	-0.195542	-0.382695	-0.807232	-0.172988	-0.699612	-0.807232	-0.120341	-0.699612	-0.664779	-0.097776	-0.586760	-0.617295	-0.060165	-0.445710	-0.569811	-0.752105	-3.254978	-4.225488	0.000000	0.000000	8.580428	6.145418	10.421551	9.013730	-14.388888	42.356404	43.490254	81.319897	-0.545479	-4.814878	0.968689	-15.094210	38.607676	50.041731	87.357792	-0.307897	-13.703713
1.772727	-2.535893	-0.559419	103.578200	0.077097	0.989224	0.519243	-1.816304	-2.116430	-10.009441	8.463805	0.147721	28.618657	1.833764	0.000000	-2.366440	2.633396	21.890100	2.794858	0.048779	24.929982	-12.912746	0.000000	-0.098383	-0.310151	-0.691628	-0.182706	-0.412501	-0.734855	-0.161633	-0.754101	-0.734855	-0.112441	-0.754101	-0.605175	-0.091358	-0.632460	-0.561948	-0.056216	-0.480424	-0.518721	-0.702737	-3.508491	-3.846628	0.000000	0.000000	8.671935	6.025246	9.845470	8.654156	-15.192040	40.367595	44.440465	79.971787	-2.518598	-4.604588	1.555346	-16.030337	38.448936	50.735431	87.609316	-2.168584	-13.064442
1.795455	-2.601141	-0.777561	103.219124	0.077902	0.989471	0.519991	-1.383030	-2.301112	-9.953403	8.694415	0.151746	28.556742	2.225318	0.000000	-2.079349	2.759792	21.862043	2.841473	0.049593	24.559421	-13.142679	0.000000	-0.092069	-0.330186	-0.620221	-0.170982	-0.439147	-0.658984	-0.151261	-0.802814	-0.658984	-0.105226	-0.802814	-0.542693	-0.085496	-0.673315	-0.503929	-0.052608	-0.511458	-0.465165	-0.657642	-3.735129	-3.449481	0.000000	0.000000	8.747155	5.870989	9.285577	8.249130	-16.072503	38.374671	45.692227	78.961847	-4.387536	-4.136297	2.285545	-17.061296	38.241504	51.755872	87.852897	-3.937521	-11.926737
1.818182	-2.643358	-0.974449	102.829608	0.078736	0.989834	0.520673	-0.954377	-2.461462	-9.967779	8.922972	0.155735	28.550729	2.803535	0.000000	-1.825465	2.854908	21.668745	2.870322	0.050097	24.234632	-13.212745	0.000000	-0.087924	-0.346576	-0.548965	-0.163284	-0.460946	-0.583276	-0.144451	-0.842665	-0.583276	-0.100489	-0.842665	-0.480345	-0.081647	-0.706737	-0.446034	-0.050240	-0.536846	-0.411724	-0.628035	-3.920535	-3.053181	0.000000	0.000000	8.788797	5.662917	8.733693	7.834839	-17.025003	36.479325	47.290935	78.269499	-6.120404	-3.317766	3.174929	-18.160247	38.004913	53.097350	87.978837	-5.471674	-10.296905
1.840909	-2.652806	-1.161291	102.450762	0.079591	0.990299	0.521252	-0.535235	-2.563748	-9.863426	9.117988	0.159139	28.526232	3.259201	0.000000	-1.593405	2.908496	21.536560	2.867889	0.050054	23.890734	-13.409084	0.000000	-0.082063	-0.359009	-0.486916	-0.152399	-0.477482	-0.517348	-0.134821	-0.872895	-0.517348	-0.093789	-0.872895	-0.426052	-0.076203	-0.732092	-0.395619	-0.046891	-0.556105	-0.365187	-0.586166	-4.061184	-2.708081	0.000000	0.000000	8.754724	5.423971	8.268445	7.456147	-17.991900	34.765101	49.196565	77.909762	-7.677691	-2.177513	4.162921	-19.317152	37.691499	54.774044	88.062439	-6.679663	-8.232248
1.863636	-2.642619	-1.314430	102.098046	0.080419	0.990905	0.521775	-0.153180	-2.627362	-9.807152	9.292217	0.162180	28.507022	3.763654	0.000000	-1.401778	2.929750	21.334605	2.835232	0.049484	23.579758	-13.568574	0.000000	-0.078274	-0.368933	-0.423564	-0.145363	-0.490680	-0.450037	-0.128596	-0.897023	-0.450037	-0.089459	-0.897023	-0.370618	-0.072685	-0.752327	-0.344146	-0.044726	-0.571476	-0.317673	-0.559104	-4.173438	-2.355736	0.000000	0.000000	8.621644	5.163613	7.752183	7.088022	-18.989976	33.204825	51.416394	77.959469	-9.195124	-0.966922	5.364478	-20.568466	37.535048	56.710873	88.170618	-7.590430	-6.049717
1.886364	-2.608334	-1.449288	101.791343	0.081213	0.991631	0.522284	0.213310	-2.651904	-9.818753	9.464669	0.165190	28.480152	4.297881	0.000000	-1.221798	2.915649	21.031646	2.786110	0.048627	23.327609	-13.624354	0.000000	-0.074978	-0.375042	-0.371549	-0.139242	-0.498806	-0.394771	-0.123182	-0.911878	-0.394771	-0.085693	-0.911878	-0.325105	-0.069625	-0.764786	-0.301884	-0.042843	-0.580941	-0.278662	-0.535563	-4.242554	-2.066444	0.000000	0.000000	8.388468	4.888259	7.334160	6.775503	-19.951139	31.760364	53.944909	78.496192	-10.400389	0.343034	6.600333	-21.875101	37.308459	58.996339	88.428755	-8.050960	-3.719006
1.909091	-2.543156	-1.584408	101.557033	0.081906	0.992457	0.522783	0.568633	-2.632391	-9.874520	9.614358	0.167802	28.404343	4.782216	0.000000	-1.024003	2.867669	20.645708	2.740640	0.047833	23.134693	-13.565744	0.000000	-0.070004	-0.376202	-0.334335	-0.130005	-0.500348	-0.355230	-0.115010	-0.914697	-0.355230	-0.080008	-0.914697	-0.292543	-0.065006	-0.767150	-0.271647	-0.040000	-0.582736	-0.250751	-0.500032	-4.255668	-1.859468	0.000000	0.000000	8.080339	4.590314	7.001815	6.483736	-20.863331	30.320208	56.856976	79.522845	-11.122728	1.847685	7.820710	-23.224645	37.059860	61.682384	88.873207	-8.246020	-1.335872
1.931818	-2.452227	-1.714070	101.414730	0.082486	0.993410	0.523260	0.902170	-2.574652	-10.013171	9.749064	0.170153	28.279082	5.220312	0.000000	-0.813940	2.790293	20.185361	2.711451	0.047324	22.990943	-13.363719	0.000000	-0.065090	-0.371980	-0.324882	-0.120879	-0.494733	-0.345187	-0.106937	-0.904432	-0.345187	-0.074392	-0.904432	-0.284272	-0.060443	-0.758542	-0.263967	-0.037193	-0.576197	-0.243661	-0.464933	-4.207912	-1.806896	0.000000	0.000000	7.687210	4.277789	6.877250	6.247202	-21.705781	28.970121	60.136800	80.634316	-11.381348	3.487031	8.889903	-24.572669	36.574111	64.823599	89.281644	-8.171581	1.135053
1.954545	-2.332227	-1.863902	101.349085	0.082976	0.994474	0.523693	1.240476	-2.480662	-10.160952	9.861809	0.172121	28.079147	5.537440	0.000000	-0.566930	2.684100	19.625204	2.706016	0.047229	22.875303	-12.955865	0.000000	-0.055740	-0.362209	-0.339448	-0.103514	-0.481738	-0.360664	-0.091575	-0.880675	-0.360664	-0.063705	-0.880675	-0.297017	-0.051760	-0.738616	-0.275802	-0.031850	-0.561061	-0.254586	-0.398144	-4.097379	-1.887908	0.000000	0.000000	7.215200	3.955162	6.957970	6.037718	-22.489437	27.697651	63.843643	81.388476	-11.183490	5.425292	9.781975	-25.914420	35.924871	68.413799	89.499566	-8.107509	3.622453
1.977273	-2.185402	-2.028548	101.332060	0.083400	0.995677	0.524071	1.578896	-2.350952	-10.278427	9.949297	0.173648	27.802169	5.717260	0.000000	-0.292285	2.550333	18.921599	2.734080	0.047719	22.776585	-12.317422	0.000000	-0.042160	-0.347069	-0.372647	-0.078296	-0.461602	-0.395938	-0.069265	-0.843865	-0.395938	-0.048185	-0.843865	-0.326066	-0.039150	-0.707744	-0.302776	-0.024090	-0.537611	-0.279485	-0.301148	-3.926119	-2.072551	0.000000	0.000000	6.638856	3.671697	7.236832	5.870892	-23.225969	26.553498	67.968633	81.580924	-10.717298	7.610149	10.481544	-27.190416	35.012489	72.392548	89.222575	-8.022824	6.139302
